<?xml version="1.0" standalone="no"?><svg xmlns="http://www.w3.org/2000/svg" viewBox="0 0 1440 320"><path fill="#0099ff" fill-opacity="1" d="M0,128L34.3,149.3C68.6,171,137,213,206,197.3C274.3,181,343,107,411,101.3C480,96,549,160,617,181.3C685.7,203,754,181,823,170.7C891.4,160,960,160,1029,170.7C1097.1,181,1166,203,1234,186.7C1302.9,171,1371,117,1406,90.7L1440,64L1440,320L1405.7,320C1371.4,320,1303,320,1234,320C1165.7,320,1097,320,1029,320C960,320,891,320,823,320C754.3,320,686,320,617,320C548.6,320,480,320,411,320C342.9,320,274,320,206,320C137.1,320,69,320,34,320L0,320Z"></path></svg>